<svg xmlns="http://www.w3.org/2000/svg" viewBox="0 0 721 241"><defs><style>.cls-1{fill:#ff396a;}.cls-2{fill:#f2f2f2;}.cls-3{fill:none;stroke:#000;stroke-miterlimit:10;}</style></defs><g id="图层_2" data-name="图层 2"><g id="图层_4" data-name="图层 4"><rect class="cls-1" x="20.5" y="20.5" width="20" height="20"/><rect class="cls-1" x="20.5" y="40.5" width="20" height="20"/><rect class="cls-1" x="80.5" y="20.5" width="20" height="20"/><rect class="cls-1" x="80.5" y="40.5" width="20" height="20"/><rect class="cls-1" x="100.5" y="20.5" width="20" height="20"/><rect class="cls-1" x="20.5" y="60.5" width="20" height="20"/><rect class="cls-1" x="20.5" y="80.5" width="20" height="20"/><rect class="cls-1" x="20.5" y="100.5" width="20" height="20"/><rect class="cls-1" x="80.5" y="60.5" width="20" height="20"/><rect class="cls-1" x="80.5" y="80.5" width="20" height="20"/><rect class="cls-1" x="80.5" y="100.5" width="20" height="20"/><rect class="cls-1" x="100.5" y="80.5" width="20" height="20"/><rect class="cls-1" x="20.5" y="120.5" width="20" height="20"/><rect class="cls-1" x="20.5" y="140.5" width="20" height="20"/><rect class="cls-1" x="20.5" y="200.5" width="20" height="20"/><rect class="cls-1" x="80.5" y="120.5" width="20" height="20"/><rect class="cls-1" x="80.5" y="140.5" width="20" height="20"/><rect class="cls-1" x="100.5" y="140.5" width="20" height="20"/><rect class="cls-1" x="80.5" y="200.5" width="20" height="20"/><rect class="cls-1" x="100.5" y="200.5" width="20" height="20"/><rect class="cls-1" x="140.5" y="20.5" width="20" height="20"/><rect class="cls-1" x="120.5" y="20.5" width="20" height="20"/><rect class="cls-1" x="140.5" y="40.5" width="20" height="20"/><rect class="cls-1" x="160.5" y="20.5" width="20" height="20"/><rect class="cls-1" x="200.5" y="20.5" width="20" height="20"/><rect class="cls-1" x="180.5" y="20.5" width="20" height="20"/><rect class="cls-1" x="200.5" y="40.5" width="20" height="20"/><rect class="cls-1" x="140.5" y="60.5" width="20" height="20"/><rect class="cls-1" x="140.5" y="80.5" width="20" height="20"/><rect class="cls-1" x="120.5" y="80.5" width="20" height="20"/><rect class="cls-1" x="140.5" y="100.5" width="20" height="20"/><rect class="cls-1" x="160.5" y="80.5" width="20" height="20"/><rect class="cls-1" x="200.5" y="60.5" width="20" height="20"/><rect class="cls-1" x="200.5" y="80.5" width="20" height="20"/><rect class="cls-1" x="180.5" y="80.5" width="20" height="20"/><rect class="cls-1" x="200.5" y="100.5" width="20" height="20"/><rect class="cls-1" x="140.5" y="120.5" width="20" height="20"/><rect class="cls-1" x="140.5" y="140.5" width="20" height="20"/><rect class="cls-1" x="120.5" y="140.5" width="20" height="20"/><rect class="cls-1" x="160.5" y="140.5" width="20" height="20"/><rect class="cls-1" x="140.5" y="200.5" width="20" height="20"/><rect class="cls-1" x="120.5" y="200.5" width="20" height="20"/><rect class="cls-1" x="160.5" y="200.5" width="20" height="20"/><rect class="cls-1" x="200.5" y="120.5" width="20" height="20"/><rect class="cls-1" x="200.5" y="140.5" width="20" height="20"/><rect class="cls-1" x="180.5" y="140.5" width="20" height="20"/><rect class="cls-1" x="200.5" y="200.5" width="20" height="20"/><rect class="cls-1" x="180.5" y="200.5" width="20" height="20"/><rect class="cls-1" x="240.5" y="0.5" width="20" height="20"/><rect class="cls-1" x="260.5" y="0.5" width="20" height="20"/><rect class="cls-1" x="260.5" y="20.5" width="20" height="20"/><rect class="cls-1" x="240.5" y="20.5" width="20" height="20"/><rect class="cls-1" x="260.5" y="40.5" width="20" height="20"/><rect class="cls-1" x="280.5" y="20.5" width="20" height="20"/><rect class="cls-1" x="320.5" y="20.5" width="20" height="20"/><rect class="cls-1" x="300.5" y="20.5" width="20" height="20"/><rect class="cls-1" x="320.5" y="40.5" width="20" height="20"/><rect class="cls-1" x="340.5" y="40.5" width="20" height="20"/><rect class="cls-1" x="340.5" y="20.5" width="20" height="20"/><rect class="cls-1" x="260.5" y="60.5" width="20" height="20"/><rect class="cls-1" x="260.5" y="80.5" width="20" height="20"/><rect class="cls-1" x="260.5" y="100.5" width="20" height="20"/><rect class="cls-1" x="280.5" y="100.5" width="20" height="20"/><rect class="cls-1" x="280.5" y="80.5" width="20" height="20"/><rect class="cls-1" x="320.5" y="60.5" width="20" height="20"/><rect class="cls-1" x="320.5" y="80.5" width="20" height="20"/><rect class="cls-1" x="300.5" y="80.5" width="20" height="20"/><rect class="cls-1" x="300.5" y="100.5" width="20" height="20"/><rect class="cls-1" x="320.5" y="100.5" width="20" height="20"/><rect class="cls-1" x="340.5" y="100.5" width="20" height="20"/><rect class="cls-1" x="340.5" y="80.5" width="20" height="20"/><rect class="cls-1" x="340.5" y="60.5" width="20" height="20"/><rect class="cls-1" x="260.5" y="120.5" width="20" height="20"/><rect class="cls-1" x="260.5" y="140.5" width="20" height="20"/><rect class="cls-1" x="260.5" y="160.5" width="20" height="20"/><rect class="cls-1" x="280.5" y="140.5" width="20" height="20"/><rect class="cls-1" x="280.5" y="120.5" width="20" height="20"/><rect class="cls-1" x="260.5" y="180.5" width="20" height="20"/><rect class="cls-1" x="260.5" y="200.5" width="20" height="20"/><rect class="cls-1" x="240.5" y="200.5" width="20" height="20"/><rect class="cls-1" x="240.5" y="220.5" width="20" height="20"/><rect class="cls-1" x="260.5" y="220.5" width="20" height="20"/><rect class="cls-1" x="280.5" y="200.5" width="20" height="20"/><rect class="cls-1" x="300.5" y="120.5" width="20" height="20"/><rect class="cls-1" x="320.5" y="120.5" width="20" height="20"/><rect class="cls-1" x="320.5" y="140.5" width="20" height="20"/><rect class="cls-1" x="300.5" y="140.5" width="20" height="20"/><rect class="cls-1" x="320.5" y="160.5" width="20" height="20"/><rect class="cls-1" x="340.5" y="160.5" width="20" height="20"/><rect class="cls-1" x="340.5" y="140.5" width="20" height="20"/><rect class="cls-1" x="340.5" y="120.5" width="20" height="20"/><rect class="cls-1" x="320.5" y="180.5" width="20" height="20"/><rect class="cls-1" x="320.5" y="200.5" width="20" height="20"/><rect class="cls-1" x="300.5" y="200.5" width="20" height="20"/><rect class="cls-1" x="340.5" y="200.5" width="20" height="20"/><rect class="cls-1" x="340.5" y="180.5" width="20" height="20"/><rect class="cls-1" x="380.5" y="20.5" width="20" height="20"/><rect class="cls-1" x="360.5" y="20.5" width="20" height="20"/><rect class="cls-1" x="360.5" y="40.5" width="20" height="20"/><rect class="cls-1" x="380.5" y="40.5" width="20" height="20"/><rect class="cls-1" x="400.5" y="20.5" width="20" height="20"/><rect class="cls-1" x="440.5" y="0.5" width="20" height="20"/><rect class="cls-1" x="440.5" y="20.5" width="20" height="20"/><rect class="cls-1" x="420.5" y="20.5" width="20" height="20"/><rect class="cls-1" x="440.5" y="40.5" width="20" height="20"/><rect class="cls-1" x="460.5" y="20.5" width="20" height="20"/><rect class="cls-1" x="460.5" y="0.5" width="20" height="20"/><rect class="cls-1" x="360.5" y="60.5" width="20" height="20"/><rect class="cls-1" x="380.5" y="60.5" width="20" height="20"/><rect class="cls-1" x="380.5" y="80.5" width="20" height="20"/><rect class="cls-1" x="360.5" y="80.5" width="20" height="20"/><rect class="cls-1" x="360.5" y="100.5" width="20" height="20"/><rect class="cls-1" x="380.5" y="100.5" width="20" height="20"/><rect class="cls-1" x="400.5" y="100.5" width="20" height="20"/><rect class="cls-1" x="400.5" y="80.5" width="20" height="20"/><rect class="cls-1" x="440.5" y="60.5" width="20" height="20"/><rect class="cls-1" x="440.5" y="80.5" width="20" height="20"/><rect class="cls-1" x="420.5" y="80.5" width="20" height="20"/><rect class="cls-1" x="420.5" y="100.5" width="20" height="20"/><rect class="cls-1" x="440.5" y="100.5" width="20" height="20"/><rect class="cls-1" x="360.5" y="120.5" width="20" height="20"/><rect class="cls-1" x="380.5" y="120.5" width="20" height="20"/><rect class="cls-1" x="380.5" y="140.5" width="20" height="20"/><rect class="cls-1" x="360.5" y="140.5" width="20" height="20"/><rect class="cls-1" x="360.5" y="160.5" width="20" height="20"/><rect class="cls-1" x="380.5" y="160.5" width="20" height="20"/><rect class="cls-1" x="400.5" y="140.5" width="20" height="20"/><rect class="cls-1" x="400.5" y="120.5" width="20" height="20"/><rect class="cls-1" x="360.5" y="180.5" width="20" height="20"/><rect class="cls-1" x="380.5" y="180.5" width="20" height="20"/><rect class="cls-1" x="380.5" y="200.5" width="20" height="20"/><rect class="cls-1" x="360.5" y="200.5" width="20" height="20"/><rect class="cls-1" x="400.5" y="200.5" width="20" height="20"/><rect class="cls-1" x="420.5" y="120.5" width="20" height="20"/><rect class="cls-1" x="440.5" y="120.5" width="20" height="20"/><rect class="cls-1" x="440.5" y="140.5" width="20" height="20"/><rect class="cls-1" x="420.5" y="140.5" width="20" height="20"/><rect class="cls-1" x="440.5" y="160.5" width="20" height="20"/><rect class="cls-1" x="440.5" y="180.5" width="20" height="20"/><rect class="cls-1" x="440.5" y="200.5" width="20" height="20"/><rect class="cls-1" x="420.5" y="200.5" width="20" height="20"/><rect class="cls-1" x="440.5" y="220.5" width="20" height="20"/><rect class="cls-1" x="460.5" y="220.5" width="20" height="20"/><rect class="cls-1" x="460.5" y="200.5" width="20" height="20"/><rect class="cls-1" x="500.5" y="20.5" width="20" height="20"/><rect class="cls-1" x="500.5" y="40.5" width="20" height="20"/><rect class="cls-1" x="520.5" y="40.5" width="20" height="20"/><rect class="cls-1" x="520.5" y="20.5" width="20" height="20"/><rect class="cls-1" x="560.5" y="0.5" width="20" height="20"/><rect class="cls-1" x="560.5" y="20.5" width="20" height="20"/><rect class="cls-1" x="540.5" y="20.5" width="20" height="20"/><rect class="cls-1" x="540.5" y="40.5" width="20" height="20"/><rect class="cls-1" x="560.5" y="40.5" width="20" height="20"/><rect class="cls-1" x="580.5" y="40.5" width="20" height="20"/><rect class="cls-1" x="580.5" y="20.5" width="20" height="20"/><rect class="cls-1" x="500.5" y="60.5" width="20" height="20"/><rect class="cls-1" x="500.5" y="80.5" width="20" height="20"/><rect class="cls-1" x="500.5" y="100.5" width="20" height="20"/><rect class="cls-1" x="520.5" y="100.5" width="20" height="20"/><rect class="cls-1" x="520.5" y="80.5" width="20" height="20"/><rect class="cls-1" x="520.5" y="60.5" width="20" height="20"/><rect class="cls-1" x="560.5" y="60.5" width="20" height="20"/><rect class="cls-1" x="560.5" y="80.5" width="20" height="20"/><rect class="cls-1" x="540.5" y="80.5" width="20" height="20"/><rect class="cls-1" x="540.5" y="100.5" width="20" height="20"/><rect class="cls-1" x="560.5" y="100.5" width="20" height="20"/><rect class="cls-1" x="580.5" y="80.5" width="20" height="20"/><rect class="cls-1" x="580.5" y="60.5" width="20" height="20"/><rect class="cls-1" x="500.5" y="120.5" width="20" height="20"/><rect class="cls-1" x="500.5" y="140.5" width="20" height="20"/><rect class="cls-1" x="480.5" y="140.5" width="20" height="20"/><rect class="cls-1" x="500.5" y="160.5" width="20" height="20"/><rect class="cls-1" x="520.5" y="160.5" width="20" height="20"/><rect class="cls-1" x="520.5" y="140.5" width="20" height="20"/><rect class="cls-1" x="520.5" y="120.5" width="20" height="20"/><rect class="cls-1" x="500.5" y="180.5" width="20" height="20"/><rect class="cls-1" x="500.5" y="200.5" width="20" height="20"/><rect class="cls-1" x="520.5" y="200.5" width="20" height="20"/><rect class="cls-1" x="520.5" y="180.5" width="20" height="20"/><rect class="cls-1" x="540.5" y="120.5" width="20" height="20"/><rect class="cls-1" x="560.5" y="120.5" width="20" height="20"/><rect class="cls-1" x="560.5" y="140.5" width="20" height="20"/><rect class="cls-1" x="540.5" y="140.5" width="20" height="20"/><rect class="cls-1" x="540.5" y="160.5" width="20" height="20"/><rect class="cls-1" x="560.5" y="160.5" width="20" height="20"/><rect class="cls-1" x="580.5" y="160.5" width="20" height="20"/><rect class="cls-1" x="580.5" y="140.5" width="20" height="20"/><rect class="cls-1" x="580.5" y="120.5" width="20" height="20"/><rect class="cls-1" x="540.5" y="180.5" width="20" height="20"/><rect class="cls-1" x="560.5" y="180.5" width="20" height="20"/><rect class="cls-1" x="560.5" y="200.5" width="20" height="20"/><rect class="cls-1" x="540.5" y="200.5" width="20" height="20"/><rect class="cls-1" x="580.5" y="200.5" width="20" height="20"/><rect class="cls-1" x="580.5" y="180.5" width="20" height="20"/><rect class="cls-1" x="620.5" y="20.5" width="20" height="20"/><rect class="cls-1" x="600.5" y="20.5" width="20" height="20"/><rect class="cls-1" x="600.5" y="40.5" width="20" height="20"/><rect class="cls-1" x="620.5" y="40.5" width="20" height="20"/><rect class="cls-1" x="640.5" y="40.5" width="20" height="20"/><rect class="cls-1" x="640.5" y="20.5" width="20" height="20"/><rect class="cls-1" x="680.5" y="20.5" width="20" height="20"/><rect class="cls-1" x="660.5" y="20.5" width="20" height="20"/><rect class="cls-1" x="660.5" y="40.5" width="20" height="20"/><rect class="cls-1" x="680.5" y="40.5" width="20" height="20"/><rect class="cls-1" x="660.5" y="60.5" width="20" height="20"/><rect class="cls-1" x="680.5" y="60.5" width="20" height="20"/><rect class="cls-1" x="680.5" y="80.5" width="20" height="20"/><rect class="cls-1" x="660.5" y="80.5" width="20" height="20"/><rect class="cls-1" x="660.5" y="100.5" width="20" height="20"/><rect class="cls-1" x="680.5" y="100.5" width="20" height="20"/><rect class="cls-1" x="700.5" y="80.5" width="20" height="20"/><rect class="cls-1" x="600.5" y="120.5" width="20" height="20"/><rect class="cls-1" x="620.5" y="120.5" width="20" height="20"/><rect class="cls-1" x="620.5" y="140.5" width="20" height="20"/><rect class="cls-1" x="600.5" y="140.5" width="20" height="20"/><rect class="cls-1" x="620.5" y="160.5" width="20" height="20"/><rect class="cls-1" x="640.5" y="160.5" width="20" height="20"/><rect class="cls-1" x="640.5" y="140.5" width="20" height="20"/><rect class="cls-1" x="600.5" y="180.5" width="20" height="20"/><rect class="cls-1" x="620.5" y="180.5" width="20" height="20"/><rect class="cls-1" x="620.5" y="200.5" width="20" height="20"/><rect class="cls-1" x="600.5" y="200.5" width="20" height="20"/><rect class="cls-1" x="620.5" y="220.5" width="20" height="20"/><rect class="cls-1" x="640.5" y="200.5" width="20" height="20"/><rect class="cls-1" x="640.5" y="180.5" width="20" height="20"/><rect class="cls-1" x="660.5" y="120.5" width="20" height="20"/><rect class="cls-1" x="680.5" y="120.5" width="20" height="20"/><rect class="cls-1" x="680.5" y="140.5" width="20" height="20"/><rect class="cls-1" x="660.5" y="140.5" width="20" height="20"/><rect class="cls-1" x="660.5" y="160.5" width="20" height="20"/><rect class="cls-1" x="680.5" y="160.5" width="20" height="20"/><rect class="cls-1" x="660.5" y="180.5" width="20" height="20"/><rect class="cls-1" x="680.5" y="180.5" width="20" height="20"/><rect class="cls-1" x="680.5" y="200.5" width="20" height="20"/><rect class="cls-1" x="660.5" y="200.5" width="20" height="20"/><rect class="cls-2" x="0.5" y="0.5" width="20" height="20"/><rect class="cls-2" x="20.5" y="0.5" width="20" height="20"/><rect class="cls-2" x="0.5" y="20.5" width="20" height="20"/><rect class="cls-2" x="0.5" y="40.5" width="20" height="20"/><rect class="cls-2" x="40.5" y="40.5" width="20" height="20"/><rect class="cls-2" x="40.5" y="20.5" width="20" height="20"/><rect class="cls-2" x="40.5" y="0.5" width="20" height="20"/><rect class="cls-2" x="60.5" y="0.5" width="20" height="20"/><rect class="cls-2" x="80.5" y="0.5" width="20" height="20"/><rect class="cls-2" x="60.5" y="20.5" width="20" height="20"/><rect class="cls-2" x="60.5" y="40.5" width="20" height="20"/><rect class="cls-2" x="100.5" y="40.5" width="20" height="20"/><rect class="cls-2" x="100.5" y="0.5" width="20" height="20"/><rect class="cls-2" x="0.5" y="60.5" width="20" height="20"/><rect class="cls-2" x="0.5" y="80.5" width="20" height="20"/><rect class="cls-2" x="0.5" y="100.5" width="20" height="20"/><rect class="cls-2" x="40.5" y="100.5" width="20" height="20"/><rect class="cls-2" x="40.5" y="80.5" width="20" height="20"/><rect class="cls-2" x="40.5" y="60.5" width="20" height="20"/><rect class="cls-2" x="60.5" y="60.5" width="20" height="20"/><rect class="cls-2" x="60.5" y="80.5" width="20" height="20"/><rect class="cls-2" x="60.5" y="100.5" width="20" height="20"/><rect class="cls-2" x="100.5" y="100.5" width="20" height="20"/><rect class="cls-2" x="100.5" y="60.5" width="20" height="20"/><rect class="cls-2" x="0.5" y="120.5" width="20" height="20"/><rect class="cls-2" x="0.5" y="140.5" width="20" height="20"/><rect class="cls-2" x="0.5" y="160.5" width="20" height="20"/><rect class="cls-2" x="20.5" y="160.5" width="20" height="20"/><rect class="cls-2" x="40.5" y="160.5" width="20" height="20"/><rect class="cls-2" x="40.5" y="140.5" width="20" height="20"/><rect class="cls-2" x="40.5" y="120.5" width="20" height="20"/><rect class="cls-2" x="0.5" y="180.5" width="20" height="20"/><rect class="cls-2" x="20.5" y="180.5" width="20" height="20"/><rect class="cls-2" x="0.5" y="200.5" width="20" height="20"/><rect class="cls-2" x="0.5" y="220.5" width="20" height="20"/><rect class="cls-2" x="20.5" y="220.5" width="20" height="20"/><rect class="cls-2" x="40.5" y="220.5" width="20" height="20"/><rect class="cls-2" x="40.5" y="200.5" width="20" height="20"/><rect class="cls-2" x="40.5" y="180.5" width="20" height="20"/><rect class="cls-2" x="60.5" y="120.5" width="20" height="20"/><rect class="cls-2" x="60.5" y="140.5" width="20" height="20"/><rect class="cls-2" x="60.5" y="160.5" width="20" height="20"/><rect class="cls-2" x="80.5" y="160.5" width="20" height="20"/><rect class="cls-2" x="100.5" y="160.5" width="20" height="20"/><rect class="cls-2" x="100.5" y="120.5" width="20" height="20"/><rect class="cls-2" x="60.5" y="180.5" width="20" height="20"/><rect class="cls-2" x="80.5" y="180.5" width="20" height="20"/><rect class="cls-2" x="60.5" y="200.5" width="20" height="20"/><rect class="cls-2" x="60.5" y="220.5" width="20" height="20"/><rect class="cls-2" x="80.5" y="220.5" width="20" height="20"/><rect class="cls-2" x="100.5" y="220.5" width="20" height="20"/><rect class="cls-2" x="100.5" y="180.5" width="20" height="20"/><rect class="cls-2" x="120.5" y="0.5" width="20" height="20"/><rect class="cls-2" x="140.5" y="0.5" width="20" height="20"/><rect class="cls-2" x="120.5" y="40.5" width="20" height="20"/><rect class="cls-2" x="160.5" y="40.5" width="20" height="20"/><rect class="cls-2" x="160.5" y="0.5" width="20" height="20"/><rect class="cls-2" x="180.5" y="0.5" width="20" height="20"/><rect class="cls-2" x="200.5" y="0.5" width="20" height="20"/><rect class="cls-2" x="180.5" y="40.5" width="20" height="20"/><rect class="cls-2" x="220.5" y="40.5" width="20" height="20"/><rect class="cls-2" x="220.5" y="20.5" width="20" height="20"/><rect class="cls-2" x="220.5" y="0.5" width="20" height="20"/><rect class="cls-2" x="120.5" y="60.5" width="20" height="20"/><rect class="cls-2" x="120.5" y="100.5" width="20" height="20"/><rect class="cls-2" x="160.5" y="100.5" width="20" height="20"/><rect class="cls-2" x="160.5" y="60.5" width="20" height="20"/><rect class="cls-2" x="180.5" y="60.5" width="20" height="20"/><rect class="cls-2" x="180.5" y="100.5" width="20" height="20"/><rect class="cls-2" x="220.5" y="100.5" width="20" height="20"/><rect class="cls-2" x="220.5" y="80.5" width="20" height="20"/><rect class="cls-2" x="220.5" y="60.5" width="20" height="20"/><rect class="cls-2" x="120.5" y="120.5" width="20" height="20"/><rect class="cls-2" x="120.5" y="160.5" width="20" height="20"/><rect class="cls-2" x="140.5" y="160.5" width="20" height="20"/><rect class="cls-2" x="160.5" y="160.5" width="20" height="20"/><rect class="cls-2" x="160.5" y="120.5" width="20" height="20"/><rect class="cls-2" x="120.5" y="180.5" width="20" height="20"/><rect class="cls-2" x="140.5" y="180.5" width="20" height="20"/><rect class="cls-2" x="120.5" y="220.5" width="20" height="20"/><rect class="cls-2" x="140.5" y="220.5" width="20" height="20"/><rect class="cls-2" x="160.5" y="220.5" width="20" height="20"/><rect class="cls-2" x="160.5" y="180.5" width="20" height="20"/><rect class="cls-2" x="180.5" y="120.5" width="20" height="20"/><rect class="cls-2" x="180.5" y="160.5" width="20" height="20"/><rect class="cls-2" x="200.5" y="160.5" width="20" height="20"/><rect class="cls-2" x="220.5" y="160.5" width="20" height="20"/><rect class="cls-2" x="220.5" y="140.5" width="20" height="20"/><rect class="cls-2" x="220.5" y="120.5" width="20" height="20"/><rect class="cls-2" x="180.5" y="180.5" width="20" height="20"/><rect class="cls-2" x="200.5" y="180.5" width="20" height="20"/><rect class="cls-2" x="180.5" y="220.5" width="20" height="20"/><rect class="cls-2" x="200.5" y="220.5" width="20" height="20"/><rect class="cls-2" x="220.5" y="220.5" width="20" height="20"/><rect class="cls-2" x="220.5" y="200.5" width="20" height="20"/><rect class="cls-2" x="220.5" y="180.5" width="20" height="20"/><rect class="cls-2" x="240.5" y="40.5" width="20" height="20"/><rect class="cls-2" x="280.5" y="40.5" width="20" height="20"/><rect class="cls-2" x="280.5" y="0.5" width="20" height="20"/><rect class="cls-2" x="300.5" y="0.5" width="20" height="20"/><rect class="cls-2" x="320.5" y="0.5" width="20" height="20"/><rect class="cls-2" x="300.5" y="40.5" width="20" height="20"/><rect class="cls-2" x="340.5" y="0.5" width="20" height="20"/><rect class="cls-2" x="240.5" y="60.5" width="20" height="20"/><rect class="cls-2" x="240.5" y="80.5" width="20" height="20"/><rect class="cls-2" x="240.5" y="100.5" width="20" height="20"/><rect class="cls-2" x="280.5" y="60.5" width="20" height="20"/><rect class="cls-2" x="300.5" y="60.5" width="20" height="20"/><rect class="cls-2" x="240.5" y="120.5" width="20" height="20"/><rect class="cls-2" x="240.5" y="140.5" width="20" height="20"/><rect class="cls-2" x="240.5" y="160.5" width="20" height="20"/><rect class="cls-2" x="280.5" y="160.5" width="20" height="20"/><rect class="cls-2" x="240.5" y="180.5" width="20" height="20"/><rect class="cls-2" x="280.5" y="220.5" width="20" height="20"/><rect class="cls-2" x="280.5" y="180.5" width="20" height="20"/><rect class="cls-2" x="300.5" y="160.5" width="20" height="20"/><rect class="cls-2" x="300.5" y="180.5" width="20" height="20"/><rect class="cls-2" x="300.5" y="220.5" width="20" height="20"/><rect class="cls-2" x="320.5" y="220.5" width="20" height="20"/><rect class="cls-2" x="340.5" y="220.5" width="20" height="20"/><rect class="cls-2" x="360.5" y="0.5" width="20" height="20"/><rect class="cls-2" x="380.5" y="0.5" width="20" height="20"/><rect class="cls-2" x="400.5" y="40.5" width="20" height="20"/><rect class="cls-2" x="400.5" y="0.5" width="20" height="20"/><rect class="cls-2" x="420.5" y="0.5" width="20" height="20"/><rect class="cls-2" x="420.5" y="40.5" width="20" height="20"/><rect class="cls-2" x="460.5" y="40.5" width="20" height="20"/><rect class="cls-2" x="400.5" y="60.5" width="20" height="20"/><rect class="cls-2" x="420.5" y="60.5" width="20" height="20"/><rect class="cls-2" x="460.5" y="100.5" width="20" height="20"/><rect class="cls-2" x="460.5" y="80.5" width="20" height="20"/><rect class="cls-2" x="460.5" y="60.5" width="20" height="20"/><rect class="cls-2" x="400.5" y="160.5" width="20" height="20"/><rect class="cls-2" x="360.5" y="220.5" width="20" height="20"/><rect class="cls-2" x="380.5" y="220.5" width="20" height="20"/><rect class="cls-2" x="400.5" y="220.5" width="20" height="20"/><rect class="cls-2" x="400.5" y="180.5" width="20" height="20"/><rect class="cls-2" x="420.5" y="160.5" width="20" height="20"/><rect class="cls-2" x="460.5" y="160.5" width="20" height="20"/><rect class="cls-2" x="460.5" y="140.5" width="20" height="20"/><rect class="cls-2" x="460.5" y="120.5" width="20" height="20"/><rect class="cls-2" x="420.5" y="180.5" width="20" height="20"/><rect class="cls-2" x="420.5" y="220.5" width="20" height="20"/><rect class="cls-2" x="460.5" y="180.5" width="20" height="20"/><rect class="cls-2" x="480.5" y="0.5" width="20" height="20"/><rect class="cls-2" x="500.5" y="0.5" width="20" height="20"/><rect class="cls-2" x="480.5" y="20.5" width="20" height="20"/><rect class="cls-2" x="480.5" y="40.5" width="20" height="20"/><rect class="cls-2" x="520.5" y="0.5" width="20" height="20"/><rect class="cls-2" x="540.5" y="0.5" width="20" height="20"/><rect class="cls-2" x="580.5" y="0.5" width="20" height="20"/><rect class="cls-2" x="480.5" y="60.5" width="20" height="20"/><rect class="cls-2" x="480.5" y="80.5" width="20" height="20"/><rect class="cls-2" x="480.5" y="100.5" width="20" height="20"/><rect class="cls-2" x="540.5" y="60.5" width="20" height="20"/><rect class="cls-2" x="580.5" y="100.5" width="20" height="20"/><rect class="cls-2" x="480.5" y="120.5" width="20" height="20"/><rect class="cls-2" x="480.5" y="160.5" width="20" height="20"/><rect class="cls-2" x="480.5" y="180.5" width="20" height="20"/><rect class="cls-2" x="480.5" y="200.5" width="20" height="20"/><rect class="cls-2" x="480.5" y="220.5" width="20" height="20"/><rect class="cls-2" x="500.5" y="220.5" width="20" height="20"/><rect class="cls-2" x="520.5" y="220.5" width="20" height="20"/><rect class="cls-2" x="540.5" y="220.5" width="20" height="20"/><rect class="cls-2" x="560.5" y="220.5" width="20" height="20"/><rect class="cls-2" x="580.5" y="220.5" width="20" height="20"/><rect class="cls-2" x="600.5" y="0.5" width="20" height="20"/><rect class="cls-2" x="620.5" y="0.5" width="20" height="20"/><rect class="cls-2" x="640.5" y="0.5" width="20" height="20"/><rect class="cls-2" x="660.5" y="0.5" width="20" height="20"/><rect class="cls-2" x="680.5" y="0.5" width="20" height="20"/><rect class="cls-2" x="700.5" y="40.5" width="20" height="20"/><rect class="cls-2" x="700.5" y="20.5" width="20" height="20"/><rect class="cls-2" x="700.5" y="0.5" width="20" height="20"/><rect class="cls-2" x="600.5" y="60.5" width="20" height="20"/><rect class="cls-2" x="620.5" y="60.5" width="20" height="20"/><rect class="cls-2" x="620.5" y="80.5" width="20" height="20"/><rect class="cls-2" x="600.5" y="80.5" width="20" height="20"/><rect class="cls-2" x="600.5" y="100.5" width="20" height="20"/><rect class="cls-2" x="620.5" y="100.5" width="20" height="20"/><rect class="cls-2" x="640.5" y="100.5" width="20" height="20"/><rect class="cls-2" x="640.5" y="80.5" width="20" height="20"/><rect class="cls-2" x="640.5" y="60.5" width="20" height="20"/><rect class="cls-2" x="700.5" y="100.5" width="20" height="20"/><rect class="cls-2" x="700.5" y="60.5" width="20" height="20"/><rect class="cls-2" x="600.5" y="160.5" width="20" height="20"/><rect class="cls-2" x="640.5" y="120.5" width="20" height="20"/><rect class="cls-2" x="600.5" y="220.5" width="20" height="20"/><rect class="cls-2" x="640.5" y="220.5" width="20" height="20"/><rect class="cls-2" x="700.5" y="160.5" width="20" height="20"/><rect class="cls-2" x="700.5" y="140.5" width="20" height="20"/><rect class="cls-2" x="700.5" y="120.5" width="20" height="20"/><rect class="cls-2" x="660.5" y="220.5" width="20" height="20"/><rect class="cls-2" x="680.5" y="220.5" width="20" height="20"/><rect class="cls-2" x="700.5" y="220.5" width="20" height="20"/><rect class="cls-2" x="700.5" y="200.5" width="20" height="20"/><rect class="cls-2" x="700.5" y="180.5" width="20" height="20"/><rect class="cls-3" x="0.5" y="0.5" width="60" height="60"/><rect class="cls-3" x="0.5" y="60.5" width="60" height="60"/><rect class="cls-3" x="0.5" y="120.5" width="60" height="60"/><rect class="cls-3" x="0.5" y="180.5" width="60" height="60"/><rect class="cls-3" x="60.5" y="0.5" width="60" height="60"/><rect class="cls-3" x="60.5" y="60.5" width="60" height="60"/><rect class="cls-3" x="60.5" y="120.5" width="60" height="60"/><rect class="cls-3" x="60.5" y="180.5" width="60" height="60"/><rect class="cls-3" x="120.5" y="0.5" width="60" height="60"/><rect class="cls-3" x="120.5" y="60.5" width="60" height="60"/><rect class="cls-3" x="120.5" y="120.5" width="60" height="60"/><rect class="cls-3" x="120.5" y="180.5" width="60" height="60"/><rect class="cls-3" x="180.5" y="0.5" width="60" height="60"/><rect class="cls-3" x="180.5" y="60.5" width="60" height="60"/><rect class="cls-3" x="180.5" y="120.5" width="60" height="60"/><rect class="cls-3" x="180.5" y="180.5" width="60" height="60"/><rect class="cls-3" x="240.5" y="0.5" width="60" height="60"/><rect class="cls-3" x="240.5" y="60.5" width="60" height="60"/><rect class="cls-3" x="240.5" y="120.5" width="60" height="60"/><rect class="cls-3" x="240.5" y="180.5" width="60" height="60"/><rect class="cls-3" x="300.5" y="0.5" width="60" height="60"/><rect class="cls-3" x="300.5" y="60.5" width="60" height="60"/><rect class="cls-3" x="300.5" y="120.5" width="60" height="60"/><rect class="cls-3" x="300.5" y="180.5" width="60" height="60"/><rect class="cls-3" x="360.5" y="0.5" width="60" height="60"/><rect class="cls-3" x="360.5" y="60.5" width="60" height="60"/><rect class="cls-3" x="360.5" y="120.5" width="60" height="60"/><rect class="cls-3" x="360.5" y="180.5" width="60" height="60"/><rect class="cls-3" x="420.5" y="0.5" width="60" height="60"/><rect class="cls-3" x="420.5" y="60.5" width="60" height="60"/><rect class="cls-3" x="420.5" y="120.5" width="60" height="60"/><rect class="cls-3" x="420.5" y="180.5" width="60" height="60"/><rect class="cls-3" x="480.5" y="0.5" width="60" height="60"/><rect class="cls-3" x="480.5" y="60.5" width="60" height="60"/><rect class="cls-3" x="480.5" y="120.5" width="60" height="60"/><rect class="cls-3" x="480.5" y="180.5" width="60" height="60"/><rect class="cls-3" x="540.5" y="0.5" width="60" height="60"/><rect class="cls-3" x="540.5" y="60.5" width="60" height="60"/><rect class="cls-3" x="540.5" y="120.5" width="60" height="60"/><rect class="cls-3" x="540.5" y="180.5" width="60" height="60"/><rect class="cls-3" x="600.5" y="0.5" width="60" height="60"/><rect class="cls-3" x="600.5" y="60.5" width="60" height="60"/><rect class="cls-3" x="600.5" y="120.5" width="60" height="60"/><rect class="cls-3" x="600.5" y="180.5" width="60" height="60"/><rect class="cls-3" x="660.5" y="0.5" width="60" height="60"/><rect class="cls-3" x="660.5" y="60.5" width="60" height="60"/><rect class="cls-3" x="660.5" y="120.5" width="60" height="60"/><rect class="cls-3" x="660.5" y="180.5" width="60" height="60"/></g></g></svg>