<svg xmlns="http://www.w3.org/2000/svg" viewBox="0 0 631.41 631.41"><defs><style>.cls-1{fill:gray;}.cls-2{fill:#fff;}.cls-2,.cls-3,.cls-4,.cls-5{stroke:#000;stroke-miterlimit:10;}.cls-3{fill:#39b54a;}.cls-4{fill:none;}.cls-5{fill:#00a99d;}</style></defs><g id="图层_2" data-name="图层 2"><g id="边模型"><rect class="cls-1" x="415.71" y="315.71" width="100" height="100"/><rect class="cls-1" x="415.71" y="115.71" width="100" height="100"/><rect class="cls-1" x="215.71" y="415.71" width="100" height="100"/><rect class="cls-1" x="115.71" y="315.71" width="100" height="100"/><rect class="cls-1" x="115.71" y="215.71" width="100" height="100"/><rect class="cls-1" x="215.71" y="215.71" width="100" height="100"/><rect class="cls-1" x="215.71" y="115.71" width="100" height="100"/><rect class="cls-1" x="315.71" y="215.71" width="100" height="100"/><rect class="cls-1" x="215.71" y="315.71" width="100" height="100"/><rect class="cls-1" x="315.71" y="315.71" width="100" height="100"/><rect class="cls-1" x="315.71" y="415.71" width="100" height="100"/><rect class="cls-1" x="415.71" y="415.71" width="100" height="100"/><rect class="cls-1" x="115.71" y="415.71" width="100" height="100"/><rect class="cls-2" x="608.21" y="135.71" width="15" height="60"/><rect class="cls-2" x="608.21" y="36.21" width="15" height="60"/><rect class="cls-2" x="558.21" y="85.71" width="15" height="60" transform="translate(681.41 -450) rotate(90)"/><rect class="cls-2" x="558.21" y="-14.29" width="15" height="60" transform="translate(581.41 -550) rotate(90)"/><rect class="cls-2" x="458.71" y="-14.29" width="15" height="60" transform="translate(481.91 -450.5) rotate(90)"/><rect class="cls-2" x="558.21" y="185.71" width="15" height="60" transform="translate(781.41 -350) rotate(90)"/><rect class="cls-2" x="508.21" y="135.71" width="15" height="60"/><rect class="cls-2" x="508.21" y="36.21" width="15" height="60"/><rect class="cls-2" x="605.1" y="105.1" width="21.21" height="21.21" transform="translate(98.52 469.26) rotate(-45)"/><rect class="cls-2" x="605.1" y="5.1" width="21.21" height="21.21" transform="translate(169.23 439.97) rotate(-45)"/><rect class="cls-2" x="505.1" y="5.1" width="21.21" height="21.21" transform="translate(139.94 369.26) rotate(-45)"/><rect class="cls-2" x="405.1" y="5.1" width="21.21" height="21.21" transform="translate(110.65 298.55) rotate(-45)"/><rect class="cls-2" x="358.21" y="-14.29" width="15" height="60" transform="translate(381.41 -350) rotate(90)"/><rect class="cls-2" x="258.71" y="-14.29" width="15" height="60" transform="translate(281.91 -250.5) rotate(90)"/><rect class="cls-2" x="305.1" y="5.1" width="21.21" height="21.21" transform="translate(81.36 227.84) rotate(-45)"/><rect class="cls-2" x="5.1" y="5.1" width="21.21" height="21.21" transform="translate(-6.51 15.71) rotate(-45)"/><rect class="cls-2" x="205.1" y="5.1" width="21.21" height="21.21" transform="translate(52.07 157.13) rotate(-45)"/><rect class="cls-2" x="158.21" y="-14.29" width="15" height="60" transform="translate(181.41 -150) rotate(90)"/><rect class="cls-2" x="58.71" y="-14.29" width="15" height="60" transform="translate(81.91 -50.5) rotate(90)"/><rect class="cls-2" x="105.1" y="5.1" width="21.21" height="21.21" transform="translate(22.78 86.42) rotate(-45)"/><rect class="cls-2" x="505.1" y="105.1" width="21.21" height="21.21" transform="translate(69.23 398.55) rotate(-45)"/><rect class="cls-2" x="605.1" y="205.1" width="21.21" height="21.21" transform="translate(27.81 498.55) rotate(-45)"/><rect class="cls-2" x="505.1" y="205.1" width="21.21" height="21.21" transform="translate(-1.48 427.84) rotate(-45)"/><rect class="cls-2" x="458.21" y="85.71" width="15" height="60" transform="translate(581.41 -350) rotate(90)"/><rect class="cls-2" x="458.21" y="185.71" width="15" height="60" transform="translate(681.41 -250) rotate(90)"/><rect class="cls-2" x="408.21" y="135.71" width="15" height="60"/><rect class="cls-2" x="405.1" y="105.1" width="21.21" height="21.21" transform="translate(39.94 327.84) rotate(-45)"/><rect class="cls-3" x="405.1" y="205.1" width="21.21" height="21.21" transform="translate(-30.77 357.13) rotate(-45)"/><rect class="cls-2" x="358.21" y="85.71" width="15" height="60" transform="translate(481.41 -250) rotate(90)"/><rect class="cls-2" x="358.21" y="185.71" width="15" height="60" transform="translate(581.41 -150) rotate(90)"/><rect class="cls-2" x="308.21" y="135.71" width="15" height="60"/><rect class="cls-2" x="305.1" y="105.1" width="21.21" height="21.21" transform="translate(10.65 257.13) rotate(-45)"/><rect class="cls-3" x="305.1" y="205.1" width="21.21" height="21.21" transform="translate(-60.06 286.42) rotate(-45)"/><rect class="cls-2" x="158.21" y="85.71" width="15" height="60" transform="translate(281.41 -50) rotate(90)"/><rect class="cls-2" x="158.21" y="185.71" width="15" height="60" transform="translate(381.41 50) rotate(90)"/><rect class="cls-2" x="108.21" y="135.71" width="15" height="60"/><rect class="cls-2" x="105.1" y="105.1" width="21.21" height="21.21" transform="translate(-47.93 115.71) rotate(-45)"/><rect class="cls-2" x="105.1" y="205.1" width="21.21" height="21.21" transform="translate(-118.64 145) rotate(-45)"/><rect class="cls-2" x="258.21" y="85.71" width="15" height="60" transform="translate(381.41 -150) rotate(90)"/><rect class="cls-3" x="258.21" y="185.71" width="15" height="60" transform="translate(481.41 -50) rotate(90)"/><rect class="cls-2" x="208.21" y="135.71" width="15" height="60"/><rect class="cls-2" x="205.1" y="105.1" width="21.21" height="21.21" transform="translate(-18.64 186.42) rotate(-45)"/><rect class="cls-3" x="205.1" y="205.1" width="21.21" height="21.21" transform="translate(-89.35 215.71) rotate(-45)"/><rect class="cls-2" x="58.21" y="85.71" width="15" height="60" transform="translate(181.41 50) rotate(90)"/><rect class="cls-2" x="58.21" y="185.71" width="15" height="60" transform="translate(281.41 150) rotate(90)"/><rect class="cls-2" x="8.21" y="135.71" width="15" height="60"/><rect class="cls-2" x="408.21" y="36.21" width="15" height="60"/><rect class="cls-2" x="308.21" y="36.21" width="15" height="60"/><rect class="cls-2" x="108.21" y="36.21" width="15" height="60"/><rect class="cls-2" x="208.21" y="36.21" width="15" height="60"/><rect class="cls-2" x="8.21" y="36.21" width="15" height="60"/><rect class="cls-2" x="5.1" y="105.1" width="21.21" height="21.21" transform="translate(-77.22 45) rotate(-45)"/><rect class="cls-2" x="5.1" y="205.1" width="21.21" height="21.21" transform="translate(-147.93 74.29) rotate(-45)"/><rect class="cls-2" x="608.21" y="335.71" width="15" height="60"/><rect class="cls-2" x="608.21" y="236.21" width="15" height="60"/><rect class="cls-2" x="558.21" y="285.71" width="15" height="60" transform="translate(881.41 -250) rotate(90)"/><rect class="cls-2" x="558.21" y="385.71" width="15" height="60" transform="translate(981.41 -150) rotate(90)"/><rect class="cls-2" x="508.21" y="335.71" width="15" height="60"/><rect class="cls-2" x="508.21" y="236.21" width="15" height="60"/><rect class="cls-2" x="605.1" y="305.1" width="21.21" height="21.21" transform="translate(-42.9 527.84) rotate(-45)"/><rect class="cls-2" x="505.1" y="305.1" width="21.21" height="21.21" transform="translate(-72.19 457.13) rotate(-45)"/><rect class="cls-2" x="605.1" y="405.1" width="21.21" height="21.21" transform="translate(-113.61 557.13) rotate(-45)"/><rect class="cls-2" x="505.1" y="405.1" width="21.21" height="21.21" transform="translate(-142.9 486.42) rotate(-45)"/><rect class="cls-2" x="608.21" y="535.71" width="15" height="60"/><rect class="cls-2" x="608.21" y="436.21" width="15" height="60"/><rect class="cls-2" x="558.21" y="485.71" width="15" height="60" transform="translate(1081.41 -50) rotate(90)"/><rect class="cls-2" x="558.21" y="585.71" width="15" height="60" transform="translate(1181.41 50) rotate(90)"/><rect class="cls-2" x="508.21" y="535.71" width="15" height="60"/><rect class="cls-2" x="508.21" y="436.21" width="15" height="60"/><rect class="cls-2" x="605.1" y="505.1" width="21.21" height="21.21" transform="translate(-184.32 586.42) rotate(-45)"/><rect class="cls-2" x="505.1" y="505.1" width="21.21" height="21.21" transform="translate(-213.61 515.71) rotate(-45)"/><rect class="cls-2" x="605.1" y="605.1" width="21.21" height="21.21" transform="translate(-255.03 615.71) rotate(-45)"/><rect class="cls-2" x="505.1" y="605.1" width="21.21" height="21.21" transform="translate(-284.32 545) rotate(-45)"/><rect class="cls-2" x="458.21" y="285.71" width="15" height="60" transform="translate(781.41 -150) rotate(90)"/><rect class="cls-3" x="458.21" y="385.71" width="15" height="60" transform="translate(881.41 -50) rotate(90)"/><rect class="cls-3" x="408.21" y="335.71" width="15" height="60"/><rect class="cls-2" x="408.21" y="236.21" width="15" height="60"/><rect class="cls-3" x="405.1" y="305.1" width="21.21" height="21.21" transform="translate(-101.48 386.42) rotate(-45)"/><rect class="cls-3" x="405.1" y="405.1" width="21.21" height="21.21" transform="translate(-172.19 415.71) rotate(-45)"/><rect class="cls-2" x="458.21" y="485.71" width="15" height="60" transform="translate(981.41 50) rotate(90)"/><rect class="cls-2" x="458.21" y="585.71" width="15" height="60" transform="translate(1081.41 150) rotate(90)"/><rect class="cls-2" x="408.21" y="535.71" width="15" height="60"/><rect class="cls-3" x="408.21" y="436.21" width="15" height="60"/><rect class="cls-2" x="405.1" y="505.1" width="21.21" height="21.21" transform="translate(-242.9 445) rotate(-45)"/><rect class="cls-2" x="405.1" y="605.1" width="21.21" height="21.21" transform="translate(-313.61 474.29) rotate(-45)"/><rect class="cls-3" x="358.21" y="285.71" width="15" height="60" transform="translate(681.41 -50) rotate(90)"/><rect class="cls-3" x="358.21" y="385.71" width="15" height="60" transform="translate(781.41 50) rotate(90)"/><rect class="cls-3" x="308.21" y="335.71" width="15" height="60"/><rect class="cls-3" x="308.21" y="236.21" width="15" height="60"/><rect class="cls-3" x="305.1" y="305.1" width="21.21" height="21.21" transform="translate(-130.77 315.71) rotate(-45)"/><rect class="cls-3" x="305.1" y="405.1" width="21.21" height="21.21" transform="translate(-201.48 345) rotate(-45)"/><rect class="cls-2" x="358.21" y="485.71" width="15" height="60" transform="translate(881.41 150) rotate(90)"/><rect class="cls-2" x="358.21" y="585.71" width="15" height="60" transform="translate(981.41 250) rotate(90)"/><rect class="cls-2" x="308.21" y="535.71" width="15" height="60"/><rect class="cls-3" x="308.21" y="436.21" width="15" height="60"/><rect class="cls-2" x="305.1" y="505.1" width="21.21" height="21.21" transform="translate(-272.19 374.29) rotate(-45)"/><rect class="cls-2" x="305.1" y="605.1" width="21.21" height="21.21" transform="translate(-342.9 403.57) rotate(-45)"/><rect class="cls-3" x="258.21" y="285.71" width="15" height="60" transform="translate(581.41 50) rotate(90)"/><rect class="cls-3" x="258.21" y="385.71" width="15" height="60" transform="translate(681.41 150) rotate(90)"/><rect class="cls-3" x="208.21" y="335.71" width="15" height="60"/><rect class="cls-3" x="208.21" y="236.21" width="15" height="60"/><rect class="cls-3" x="205.1" y="305.1" width="21.21" height="21.21" transform="translate(-160.06 245) rotate(-45)"/><rect class="cls-3" x="205.1" y="405.1" width="21.21" height="21.21" transform="translate(-230.77 274.29) rotate(-45)"/><rect class="cls-2" x="258.21" y="485.71" width="15" height="60" transform="translate(781.41 250) rotate(90)"/><rect class="cls-2" x="258.21" y="585.71" width="15" height="60" transform="translate(881.41 350) rotate(90)"/><rect class="cls-2" x="208.21" y="535.71" width="15" height="60"/><rect class="cls-3" x="208.21" y="436.21" width="15" height="60"/><rect class="cls-2" x="205.1" y="505.1" width="21.21" height="21.21" transform="translate(-301.48 303.57) rotate(-45)"/><rect class="cls-2" x="205.1" y="605.1" width="21.21" height="21.21" transform="translate(-372.19 332.86) rotate(-45)"/><rect class="cls-3" x="158.21" y="285.71" width="15" height="60" transform="translate(481.41 150) rotate(90)"/><rect class="cls-3" x="158.21" y="385.71" width="15" height="60" transform="translate(581.41 250) rotate(90)"/><rect class="cls-2" x="108.21" y="335.71" width="15" height="60"/><rect class="cls-2" x="108.21" y="236.21" width="15" height="60"/><rect class="cls-2" x="105.1" y="305.1" width="21.21" height="21.21" transform="translate(-189.35 174.29) rotate(-45)"/><rect class="cls-2" x="105.1" y="405.1" width="21.21" height="21.21" transform="translate(-260.06 203.58) rotate(-45)"/><rect class="cls-2" x="158.21" y="485.71" width="15" height="60" transform="translate(681.41 350) rotate(90)"/><rect class="cls-2" x="158.21" y="585.71" width="15" height="60" transform="translate(781.41 450) rotate(90)"/><rect class="cls-2" x="108.21" y="535.71" width="15" height="60"/><rect class="cls-2" x="108.21" y="436.21" width="15" height="60"/><rect class="cls-2" x="105.1" y="505.1" width="21.21" height="21.21" transform="translate(-330.77 232.86) rotate(-45)"/><rect class="cls-2" x="105.1" y="605.1" width="21.21" height="21.21" transform="translate(-401.48 262.15) rotate(-45)"/><rect class="cls-2" x="58.21" y="284.71" width="15" height="60" transform="translate(380.41 249) rotate(90)"/><rect class="cls-2" x="58.21" y="384.71" width="15" height="60" transform="translate(480.41 349) rotate(90)"/><rect class="cls-2" x="8.21" y="334.71" width="15" height="60"/><rect class="cls-2" x="8.21" y="235.21" width="15" height="60"/><rect class="cls-2" x="5.1" y="304.1" width="21.21" height="21.21" transform="translate(-217.93 103.28) rotate(-45)"/><rect class="cls-2" x="5.1" y="404.1" width="21.21" height="21.21" transform="translate(-288.64 132.57) rotate(-45)"/><rect class="cls-2" x="58.21" y="484.71" width="15" height="60" transform="translate(580.41 449) rotate(90)"/><rect class="cls-2" x="58.21" y="584.71" width="15" height="60" transform="translate(680.41 549) rotate(90)"/><rect class="cls-2" x="8.21" y="534.71" width="15" height="60"/><rect class="cls-2" x="8.21" y="435.21" width="15" height="60"/><rect class="cls-2" x="5.1" y="504.1" width="21.21" height="21.21" transform="translate(-359.35 161.86) rotate(-45)"/><rect class="cls-2" x="5.1" y="604.1" width="21.21" height="21.21" transform="translate(-430.06 191.15) rotate(-45)"/><polygon class="cls-4" points="465.71 165.71 435.71 195.71 495.71 195.71 465.71 165.71"/><polygon class="cls-4" points="465.71 165.71 495.71 135.71 435.71 135.71 465.71 165.71"/><polygon class="cls-4" points="465.71 165.71 435.71 135.71 435.71 195.71 465.71 165.71"/><polygon class="cls-4" points="465.71 165.71 495.71 195.71 495.71 135.71 465.71 165.71"/><polygon class="cls-5" points="265.71 165.71 235.71 195.71 295.71 195.71 265.71 165.71"/><polygon class="cls-4" points="265.71 165.71 295.71 135.71 235.71 135.71 265.71 165.71"/><polygon class="cls-4" points="265.71 165.71 235.71 135.71 235.71 195.71 265.71 165.71"/><polygon class="cls-4" points="265.71 165.71 295.71 195.71 295.71 135.71 265.71 165.71"/><polygon class="cls-5" points="165.71 265.71 135.71 295.71 195.71 295.71 165.71 265.71"/><polygon class="cls-4" points="165.71 265.71 195.71 235.71 135.71 235.71 165.71 265.71"/><polygon class="cls-4" points="165.71 265.71 135.71 235.71 135.71 295.71 165.71 265.71"/><polygon class="cls-5" points="165.71 265.71 195.71 295.71 195.71 235.71 165.71 265.71"/><polygon class="cls-5" points="265.71 265.71 235.71 295.71 295.71 295.71 265.71 265.71"/><polygon class="cls-5" points="265.71 265.71 295.71 235.71 235.71 235.71 265.71 265.71"/><polygon class="cls-5" points="265.71 265.71 235.71 235.71 235.71 295.71 265.71 265.71"/><polygon class="cls-5" points="265.71 265.71 295.71 295.71 295.71 235.71 265.71 265.71"/><polygon class="cls-5" points="365.71 265.71 335.71 295.71 395.71 295.71 365.71 265.71"/><polygon class="cls-4" points="365.71 265.71 395.71 235.71 335.71 235.71 365.71 265.71"/><polygon class="cls-5" points="365.71 265.71 335.71 235.71 335.71 295.71 365.71 265.71"/><polygon class="cls-4" points="365.71 265.71 395.71 295.71 395.71 235.71 365.71 265.71"/><polygon class="cls-5" points="165.71 365.71 135.71 395.71 195.71 395.71 165.71 365.71"/><polygon class="cls-5" points="165.71 365.71 195.71 335.71 135.71 335.71 165.71 365.71"/><polygon class="cls-4" points="165.71 365.71 135.71 335.71 135.71 395.71 165.71 365.71"/><polygon class="cls-5" points="165.71 365.71 195.71 395.71 195.71 335.71 165.71 365.71"/><polygon class="cls-5" points="265.71 365.71 235.71 395.71 295.71 395.71 265.71 365.71"/><polygon class="cls-5" points="265.71 365.71 295.71 335.71 235.71 335.71 265.71 365.71"/><polygon class="cls-5" points="265.71 365.71 235.71 335.71 235.71 395.71 265.71 365.71"/><polygon class="cls-5" points="265.71 365.71 295.71 395.71 295.71 335.71 265.71 365.71"/><polygon class="cls-5" points="365.71 365.71 335.71 395.71 395.71 395.71 365.71 365.71"/><polygon class="cls-5" points="365.71 365.71 395.71 335.71 335.71 335.71 365.71 365.71"/><polygon class="cls-5" points="365.71 365.71 335.71 335.71 335.71 395.71 365.71 365.71"/><polygon class="cls-5" points="365.71 365.71 395.71 395.71 395.71 335.71 365.71 365.71"/><polygon class="cls-4" points="165.71 465.71 135.71 495.71 195.71 495.71 165.71 465.71"/><polygon class="cls-5" points="165.71 465.71 195.71 435.71 135.71 435.71 165.71 465.71"/><polygon class="cls-4" points="165.71 465.71 135.71 435.71 135.71 495.71 165.71 465.71"/><polygon class="cls-5" points="165.71 465.71 195.71 495.71 195.71 435.71 165.71 465.71"/><polygon class="cls-4" points="265.71 465.71 235.71 495.71 295.71 495.71 265.71 465.71"/><polygon class="cls-5" points="265.71 465.71 295.71 435.71 235.71 435.71 265.71 465.71"/><polygon class="cls-5" points="265.71 465.71 235.71 435.71 235.71 495.71 265.71 465.71"/><polygon class="cls-5" points="265.71 465.71 295.71 495.71 295.71 435.71 265.71 465.71"/><polygon class="cls-4" points="365.71 465.71 335.71 495.71 395.71 495.71 365.71 465.71"/><polygon class="cls-5" points="365.71 465.71 395.71 435.71 335.71 435.71 365.71 465.71"/><polygon class="cls-5" points="365.71 465.71 335.71 435.71 335.71 495.71 365.71 465.71"/><polygon class="cls-5" points="365.71 465.71 395.71 495.71 395.71 435.71 365.71 465.71"/><polygon class="cls-5" points="465.71 365.71 435.71 395.71 495.71 395.71 465.71 365.71"/><polygon class="cls-4" points="465.71 365.71 495.71 335.71 435.71 335.71 465.71 365.71"/><polygon class="cls-5" points="465.71 365.71 435.71 335.71 435.71 395.71 465.71 365.71"/><polygon class="cls-4" points="465.71 365.71 495.71 395.71 495.71 335.71 465.71 365.71"/><polygon class="cls-4" points="465.71 465.71 435.71 495.71 495.71 495.71 465.71 465.71"/><polygon class="cls-5" points="465.71 465.71 495.71 435.71 435.71 435.71 465.71 465.71"/><polygon class="cls-5" points="465.71 465.71 435.71 435.71 435.71 495.71 465.71 465.71"/><polygon class="cls-4" points="465.71 465.71 495.71 495.71 495.71 435.71 465.71 465.71"/></g></g></svg>