<svg xmlns="http://www.w3.org/2000/svg" viewBox="0 0 602 602"><defs><style>.cls-1{fill:gray;}.cls-2{fill:none;stroke:#000;stroke-miterlimit:10;stroke-width:2px;}</style></defs><g id="图层_2" data-name="图层 2"><g id="块染色"><rect class="cls-1" x="401" y="301" width="100" height="100"/><rect class="cls-1" x="401" y="101" width="100" height="100"/><rect class="cls-1" x="201" y="401" width="100" height="100"/><rect class="cls-1" x="101" y="301" width="100" height="100"/><rect class="cls-1" x="101" y="201" width="100" height="100"/><rect class="cls-1" x="201" y="201" width="100" height="100"/><rect class="cls-1" x="201" y="101" width="100" height="100"/><rect class="cls-1" x="301" y="201" width="100" height="100"/><rect class="cls-1" x="201" y="301" width="100" height="100"/><rect class="cls-1" x="301" y="301" width="100" height="100"/><rect class="cls-1" x="301" y="401" width="100" height="100"/><rect class="cls-1" x="401" y="401" width="100" height="100"/><rect class="cls-1" x="101" y="401" width="100" height="100"/><g id="grid1"><rect class="cls-2" x="1" y="501" width="100" height="100"/><rect class="cls-2" x="101" y="501" width="100" height="100"/><rect class="cls-2" x="201" y="501" width="100" height="100"/><rect class="cls-2" x="301" y="501" width="100" height="100"/><rect class="cls-2" x="401" y="501" width="100" height="100"/><rect class="cls-2" x="501" y="501" width="100" height="100"/><rect class="cls-2" x="1" y="401" width="100" height="100"/><rect class="cls-2" x="101" y="401" width="100" height="100"/><rect class="cls-2" x="201" y="401" width="100" height="100"/><rect class="cls-2" x="301" y="401" width="100" height="100"/><rect class="cls-2" x="401" y="401" width="100" height="100"/><rect class="cls-2" x="501" y="401" width="100" height="100"/><rect class="cls-2" x="1" y="301" width="100" height="100"/><rect class="cls-2" x="101" y="301" width="100" height="100"/><rect class="cls-2" x="201" y="301" width="100" height="100"/><rect class="cls-2" x="301" y="301" width="100" height="100"/><rect class="cls-2" x="401" y="301" width="100" height="100"/><rect class="cls-2" x="501" y="301" width="100" height="100"/><rect class="cls-2" x="1" y="201" width="100" height="100"/><rect class="cls-2" x="101" y="201" width="100" height="100"/><rect class="cls-2" x="201" y="201" width="100" height="100"/><rect class="cls-2" x="301" y="201" width="100" height="100"/><rect class="cls-2" x="401" y="201" width="100" height="100"/><rect class="cls-2" x="501" y="201" width="100" height="100"/><rect class="cls-2" x="1" y="101" width="100" height="100"/><rect class="cls-2" x="101" y="101" width="100" height="100"/><rect class="cls-2" x="201" y="101" width="100" height="100"/><rect class="cls-2" x="301" y="101" width="100" height="100"/><rect class="cls-2" x="401" y="101" width="100" height="100"/><rect class="cls-2" x="501" y="101" width="100" height="100"/><rect class="cls-2" x="1" y="1" width="100" height="100"/><rect class="cls-2" x="101" y="1" width="100" height="100"/><rect class="cls-2" x="201" y="1" width="100" height="100"/><rect class="cls-2" x="301" y="1" width="100" height="100"/><rect class="cls-2" x="401" y="1" width="100" height="100"/><rect class="cls-2" x="501" y="1" width="100" height="100"/></g></g></g></svg>